HIERARCHY
ROOT Hips
{
  OFFSET 0 0 0
  CHANNELS 6 Xposition Yposition Zposition Zrotation Yrotation Xrotation
  JOINT LeftThigh
  {
    OFFSET 8.409438 0 -5.917753
    CHANNELS 3 Zrotation Yrotation Xrotation
    JOINT LeftLeg
    {
      OFFSET 0 0 -42.358652
      CHANNELS 3 Zrotation Yrotation Xrotation
      JOINT LeftFoot
      {
        OFFSET 0 0 -39.357303
        CHANNELS 3 Zrotation Yrotation Xrotation
      }
    }
  }
  JOINT RightThigh
  {
    OFFSET -8.409438 0 -5.917753
    CHANNELS 3 Zrotation Yrotation Xrotation
    JOINT RightLeg
    {
      OFFSET 0 0 -42.358652
      CHANNELS 3 Zrotation Yrotation Xrotation
      JOINT RightFoot
      {
        OFFSET 0 0 -39.357303
        CHANNELS 3 Zrotation Yrotation Xrotation
      }
    }
  }
  JOINT SpineLow
  {
    OFFSET 0 0 4.719101
    CHANNELS 3 Zrotation Yrotation Xrotation
    JOINT SpineMid
    {
      OFFSET 0 0 12.899191
      CHANNELS 3 Zrotation Yrotation Xrotation
      JOINT Chest
      {
        OFFSET 0 0 12.899191
        CHANNELS 3 Zrotation Yrotation Xrotation
        JOINT LeftShoulder
        {
          OFFSET 7.550562 1.41573 9.438202
          CHANNELS 3 Zrotation Yrotation Xrotation
          JOINT LeftArm
          {
            OFFSET 9.155056 0 4.247191
            CHANNELS 3 Zrotation Yrotation Xrotation
            JOINT LeftForearm
            {
              OFFSET 0 0 25.771955
              CHANNELS 3 Zrotation Yrotation Xrotation
              JOINT LeftHand
              {
                OFFSET 0 0 25.197169
                CHANNELS 3 Zrotation Yrotation Xrotation
              }
            }
          }
        }
        JOINT RightShoulder
        {
          OFFSET -7.550562 1.41573 9.438202
          CHANNELS 3 Zrotation Yrotation Xrotation
          JOINT RightArm
          {
            OFFSET -9.155056 0 4.247191
            CHANNELS 3 Zrotation Yrotation Xrotation
            JOINT RightForearm
            {
              OFFSET 0 0 -25.771955
              CHANNELS 3 Zrotation Yrotation Xrotation
              JOINT RightHand
              {
                OFFSET 0 0 -25.197169
                CHANNELS 3 Zrotation Yrotation Xrotation
              }
            }
          }
        }
        JOINT Neck
        {
          OFFSET 0 0 15.101124
          CHANNELS 3 Zrotation Yrotation Xrotation
          JOINT Head
          {
            OFFSET 0 0 11.325843
            CHANNELS 3 Zrotation Yrotation Xrotation
            End Site
            {
              OFFSET 0 0 14.157303
            }
          }
        }
      }
    }
  }
}
MOTION
Frames: 7
Frame Time: 0.0
0.0  93.25843  0.0  8.197849  5.721125  -78.54385  -2.895507  -8.354146  -23.094475  -9.854168  4.187457  24.049389  7.182264  2.271414  3.855387  -20.119244  1.670286  -25.237831  -8.776455  18.558614  21.872085  4.003869  2.359009  -1.387295  4.050514  2.314118  -0.702997  11.035203  6.422269  -1.531956  11.035203  6.422269  -1.531956  2.150384  2.870173  8.361469  -178.207653  11.692805  -155.781106  -6.713345  14.055375  102.298982  36.905234  -24.037034  27.909922  28.487963  -24.279372  24.107764  -80.547632  86.123025  -102.115655  -24.371794  -7.95091  -58.9321  78.372157  -22.788685  26.041038  -23.242124  -4.583649  -2.718082  -17.443043  -3.34016  -2.216069  
0.0  93.25843  0.0  8.299067  3.413428  -78.956231  -0.753129  -7.576769  -22.460327  -9.994976  4.064895  24.601952  7.041841  2.472415  3.753042  -19.056046  1.431436  -25.903474  -7.656269  19.274945  22.816566  4.125861  2.462096  -1.357025  4.165303  2.377473  -0.706424  11.349477  6.597593  -1.519217  11.349477  6.597593  -1.519217  2.26765  3.274995  8.315587  -177.013642  11.864217  -154.374665  -6.893662  13.744819  102.413986  35.553854  -23.787961  29.606528  27.657196  -24.027023  24.178449  -49.916311  86.990502  -73.590052  -26.056128  -10.744395  -61.947714  77.591484  -20.373646  26.580615  -22.722307  -4.526273  -2.846622  -17.054345  -3.29434  -2.306368  
0.0  93.25843  0.0  8.381395  0.686835  -79.499244  0.814539  -7.155013  -21.669941  -9.297382  4.019025  25.162258  6.892598  2.563157  3.59546  -17.72278  1.251128  -26.457121  -6.557981  19.881131  23.646812  4.553199  2.71178  -1.279214  4.289001  2.432959  -0.709656  11.688328  6.751545  -1.505778  11.688328  6.751545  -1.505778  2.233079  3.703555  8.230929  -175.63713  12.102015  -152.898195  -7.048759  13.350079  102.653679  34.457867  -23.594274  31.056548  26.84601  -23.731408  24.340205  -10.77419  86.798854  -36.739047  -27.1823  -13.589604  -65.150143  76.715998  -18.042715  26.954803  -21.986514  -4.461969  -2.949887  -16.503508  -3.245413  -2.375874  
0.0  93.25843  0.0  8.455213  -2.559066  -80.085704  2.028041  -6.993748  -20.843192  -7.811372  3.909292  25.795118  7.058992  2.685739  3.652785  -16.153614  1.094813  -26.951272  -5.352265  20.295437  24.355486  4.647403  2.832045  -1.210891  4.42054  2.481861  -0.727584  12.047253  6.8903  -1.532263  12.047253  6.8903  -1.532263  2.001651  4.273426  8.068132  -173.95905  12.499153  -151.387553  -7.226568  13.080111  103.006921  33.638799  -23.466798  32.408306  26.074032  -23.446985  24.557304  18.13462  85.637687  -10.320473  -27.742746  -16.464565  -68.501537  75.919985  -15.837858  26.966106  -20.972649  -4.394957  -3.006464  -15.743817  -3.197597  -2.40829  
0.0  93.25843  0.0  8.556306  -6.404449  -80.662861  3.489495  -6.744162  -19.846156  -6.200757  3.639992  26.19301  7.208566  2.863208  3.753825  -14.21552  1.014313  -27.463583  -4.180969  20.500721  24.976168  4.788097  3.015459  -1.17613  4.563361  2.524185  -0.768197  12.434737  7.01568  -1.620169  12.434738  7.01568  -1.620169  1.675873  5.006494  7.880605  -172.010191  13.035225  -149.756915  -7.41898  13.084156  103.492097  33.049748  -23.359353  33.757056  25.408165  -23.113717  24.870002  35.580843  83.941647  4.444821  -27.775958  -19.346803  -71.866771  75.352496  -13.876139  26.531196  -19.653891  -4.309293  -3.01097  -14.755104  -3.139081  -2.398999  
0.0  93.25843  0.0  8.753207  -10.812547  -81.30785  5.436653  -6.299665  -18.549834  -4.63952  3.29569  26.257407  7.382484  2.947178  3.88574  -11.969175  1.102023  -27.963339  -3.076315  20.499506  25.446524  4.891148  3.120303  -1.096549  4.713882  2.577223  -0.809444  12.843264  7.170854  -1.706351  12.843265  7.170855  -1.706351  1.280336  5.754632  7.543613  -169.990946  13.724999  -148.075779  -7.670852  13.322458  104.204557  32.663865  -23.379131  34.953121  24.736004  -22.713074  25.150714  47.646047  81.972019  13.596072  -27.248951  -22.318691  -75.243784  75.124901  -12.182026  25.767218  -18.047388  -4.265949  -2.984019  -13.550487  -3.114659  -2.365668  
0.0  93.25843  0.0  8.991551  -15.534976  -81.981467  7.383211  -6.080295  -17.097791  -2.765308  3.045129  26.110542  7.656071  3.062802  4.065701  -9.712613  1.223909  -28.493589  -2.031969  20.330149  25.80716  5.123625  3.171612  -1.008407  4.851937  2.63706  -0.869768  13.21544  7.348411  -1.843991  13.21544  7.348411  -1.843992  0.725783  6.484346  7.131822  -167.991534  14.742124  -146.317289  -7.984707  13.645708  105.222126  32.434751  -23.627266  35.852068  23.900519  -22.261224  25.422379  57.465751  79.674986  20.309361  -26.187359  -25.340548  -78.735575  75.014902  -10.548143  24.69855  -16.230374  -4.278154  -2.872389  -12.187548  -3.135051  -2.269034  
